<svg id="Group_7" data-name="Group 7" xmlns="http://www.w3.org/2000/svg" xmlns:xlink="http://www.w3.org/1999/xlink" width="171.397" height="50" viewBox="0 0 171.397 50">
  <defs>
    <clipPath id="clip-path">
      <rect id="Rectangle_2" data-name="Rectangle 2" width="171.397" height="50" fill="none"/>
    </clipPath>
  </defs>
  <g id="Group_6" data-name="Group 6" transform="translate(0 0)" clip-path="url(#clip-path)">
    <path id="Path_25" data-name="Path 25" d="M127.1,26.242c-.606,7.668,4.89,9.158,10.872,9.158h19.751c9.5,0,11.616-2.978,12.235-9.157.134-1.339,1.377-16.747,1.411-17.213.582-8.106-6.887-9-10.771-8.912H140.771c-8.751,0-11.682,3.3-12.249,9.013-.129,1.3-1.425,17.112-1.425,17.112m11.324,1.963c.523-5.075,1.213-15.016,1.467-16.931.3-2.266,1.131-3.9,5.484-3.9l14.642.026c-.447,5.384-1.465,16.03-1.537,16.919-.2,2.423-1.264,3.891-4.692,3.891ZM33.167,26.242c-.606,7.668,4.89,9.158,10.872,9.158H63.789c9.5,0,11.616-2.978,12.235-9.157C76.158,24.9,77.4,9.5,77.436,9.03c.582-8.106-6.887-9-10.771-8.912H46.841c-8.751,0-11.682,3.3-12.249,9.013-.129,1.3-1.425,17.112-1.425,17.112m11.324,1.963c.522-5.075,1.213-15.016,1.467-16.931.3-2.266,1.131-3.9,5.484-3.9L66.084,7.4c-.447,5.384-1.465,16.03-1.537,16.919-.2,2.423-1.264,3.891-4.693,3.891ZM121.567,7.437H97.473c-3.455,0-4.514,2.96-4.579,5.321L91.611,28.291h14.754a16.658,16.658,0,0,0,4.4-.537c1.7-.592,3.656-1.738,3.656-6.42h-11.9l.533-5.532a2.261,2.261,0,0,1,2.255-1.608l18.823-.018s-.562,8.833-.785,10.387c-.763,8.037-3.086,10.942-14.542,10.88H92.149c-4.494,0-12.743.769-11.71-10.88.091-1.614.885-12.507,1.25-15.353C82.552,2.475,85.82.194,93.738.194h31.515L124.9,4.7a2.944,2.944,0,0,1-2.915,2.66ZM14.385,0,11.965,28.212h20l-1.639,5.532a2.337,2.337,0,0,1-2.254,1.69l-6.857,0H4.642A5.106,5.106,0,0,1,.213,29.907L2.655,1.6A1.641,1.641,0,0,1,4.188.016ZM168.969,47.912a1.934,1.934,0,0,0-.494-1.454,2.233,2.233,0,0,0-1.305-.55l-.8-.112a.745.745,0,0,1-.456-.2.435.435,0,0,1-.13-.308c0-.289.233-.615.8-.615a1.638,1.638,0,0,1,1.258.391l1.025-1.025a2.946,2.946,0,0,0-2.237-.792,2.147,2.147,0,0,0-2.423,2.1,1.837,1.837,0,0,0,.457,1.333,2.245,2.245,0,0,0,1.332.587l.8.112a.738.738,0,0,1,.438.177.555.555,0,0,1,.13.391c0,.382-.307.6-.951.6a2.161,2.161,0,0,1-1.482-.466l-1.044,1.043a3.235,3.235,0,0,0,2.516.876c1.4,0,2.563-.737,2.563-2.088m-10.183,2.031V43.308h-1.631v3.337l-2.125-3.337H153.6v6.636h1.631V46.608l2.125,3.336ZM146.46,46.626c0,1.211-.093,1.426-.242,1.621a.862.862,0,0,1-1.3,0c-.149-.2-.243-.41-.243-1.621s.093-1.436.243-1.631a.881.881,0,0,1,1.3,0c.149.2.242.419.242,1.631m1.631,0A3.4,3.4,0,0,0,147.42,44a2.681,2.681,0,0,0-3.709,0,3.4,3.4,0,0,0-.671,2.629,3.4,3.4,0,0,0,.671,2.628,2.68,2.68,0,0,0,3.709,0,3.4,3.4,0,0,0,.671-2.628m-10.563-3.318H135.9v6.636h1.631Zm-6.967,1.454V43.308h-4.893v1.454H127.3v5.182h1.631V44.762Zm-10.117,2.852V43.308h-1.631v4.269a.864.864,0,0,1-.895.969.851.851,0,0,1-.876-.969V43.308h-1.631v4.306a2.52,2.52,0,0,0,5.033,0m-10.256,2.33V48.49H107.4V43.308h-1.631v6.636ZM98.627,46.626c0,1.211-.093,1.426-.243,1.621a.862.862,0,0,1-1.3,0c-.149-.2-.243-.41-.243-1.621s.093-1.436.243-1.631a.881.881,0,0,1,1.3,0c.149.2.243.419.243,1.631m1.631,0A3.406,3.406,0,0,0,99.587,44a2.681,2.681,0,0,0-3.71,0,3.4,3.4,0,0,0-.671,2.629,3.4,3.4,0,0,0,.671,2.628,2.68,2.68,0,0,0,3.71,0,3.405,3.405,0,0,0,.671-2.628M89.965,47.912a1.932,1.932,0,0,0-.494-1.454,2.23,2.23,0,0,0-1.3-.55l-.8-.112a.75.75,0,0,1-.457-.2.436.436,0,0,1-.13-.308c0-.289.233-.615.8-.615a1.638,1.638,0,0,1,1.258.391l1.025-1.025a2.945,2.945,0,0,0-2.237-.792,2.147,2.147,0,0,0-2.423,2.1,1.837,1.837,0,0,0,.457,1.333,2.246,2.246,0,0,0,1.333.587l.8.112a.738.738,0,0,1,.438.177.555.555,0,0,1,.13.391c0,.382-.308.6-.951.6a2.161,2.161,0,0,1-1.482-.466l-1.044,1.043A3.236,3.236,0,0,0,87.4,50c1.4,0,2.563-.737,2.563-2.088m-16.362,0a1.932,1.932,0,0,0-.494-1.454,2.233,2.233,0,0,0-1.3-.55L71,45.8a.748.748,0,0,1-.457-.2.437.437,0,0,1-.13-.308c0-.289.233-.615.8-.615a1.638,1.638,0,0,1,1.258.391L73.5,44.045a2.946,2.946,0,0,0-2.237-.792,2.147,2.147,0,0,0-2.423,2.1,1.839,1.839,0,0,0,.456,1.333,2.247,2.247,0,0,0,1.333.587l.8.112a.738.738,0,0,1,.438.177.553.553,0,0,1,.13.391c0,.382-.307.6-.951.6a2.162,2.162,0,0,1-1.482-.466l-1.044,1.043A3.237,3.237,0,0,0,71.039,50c1.4,0,2.563-.737,2.563-2.088m-9.911,0a1.932,1.932,0,0,0-.494-1.454,2.233,2.233,0,0,0-1.3-.55l-.8-.112a.748.748,0,0,1-.457-.2.435.435,0,0,1-.13-.308c0-.289.233-.615.8-.615a1.639,1.639,0,0,1,1.258.391l1.025-1.025a2.946,2.946,0,0,0-2.237-.792,2.147,2.147,0,0,0-2.423,2.1,1.839,1.839,0,0,0,.456,1.333,2.248,2.248,0,0,0,1.333.587l.8.112a.738.738,0,0,1,.438.177.553.553,0,0,1,.131.391c0,.382-.308.6-.951.6a2.163,2.163,0,0,1-1.482-.466l-1.044,1.043A3.237,3.237,0,0,0,61.128,50c1.4,0,2.563-.737,2.563-2.088m-10,2.031V48.49h-2.88V47.325h2.46V45.871h-2.46V44.762H53.7V43.308h-4.51v6.636Zm-10.238,0V43.308H41.825v3.337L39.7,43.308H38.274v6.636h1.631V46.608l2.125,3.336ZM32.549,43.308H30.918v6.636h1.631Zm-7.087,4.6a1.934,1.934,0,0,0-.494-1.454,2.233,2.233,0,0,0-1.305-.55l-.8-.112a.747.747,0,0,1-.456-.2.435.435,0,0,1-.13-.308c0-.289.233-.615.8-.615a1.638,1.638,0,0,1,1.258.391l1.025-1.025a2.945,2.945,0,0,0-2.237-.792,2.147,2.147,0,0,0-2.423,2.1,1.837,1.837,0,0,0,.457,1.333,2.246,2.246,0,0,0,1.333.587l.8.112a.735.735,0,0,1,.438.177.553.553,0,0,1,.131.391c0,.382-.308.6-.951.6a2.162,2.162,0,0,1-1.482-.466l-1.044,1.043A3.236,3.236,0,0,0,22.9,50c1.4,0,2.563-.737,2.563-2.088m-10.07-.3V43.308H13.761v4.269a.864.864,0,0,1-.9.969.851.851,0,0,1-.876-.969V43.308H10.359v4.306A2.368,2.368,0,0,0,12.866,50a2.384,2.384,0,0,0,2.526-2.386m-12.065.28a.548.548,0,0,1-.6.587h-1.1V47.315h1.1a.541.541,0,0,1,.6.578m-.093-2.582a.516.516,0,0,1-.587.541H1.631V44.771H2.647a.516.516,0,0,1,.587.54m1.724,2.675a1.543,1.543,0,0,0-.82-1.445,1.6,1.6,0,0,0,.727-1.314,1.861,1.861,0,0,0-2.116-1.92H0v6.636H2.889a1.884,1.884,0,0,0,2.069-1.957" transform="translate(0 0)" fill="#b70036" fill-rule="evenodd"/>
  </g>
</svg>
