<svg xmlns="http://www.w3.org/2000/svg" width="25.999" height="25.999" viewBox="0 0 25.999 25.999">
  <g id="Group_17" data-name="Group 17" transform="translate(-209.5 -6290.5)">
    <path id="Icon_Path" data-name="Icon Path" d="M4.168,8.337A4.168,4.168,0,1,1,8.337,4.168,4.177,4.177,0,0,1,4.168,8.337Z" transform="translate(218.328 6299.332)" fill="none" stroke="#fff" stroke-width="1"/>
    <path id="Icon_Path-2" data-name="Icon Path" d="M1.5,0a1.5,1.5,0,1,0,1.06.438A1.5,1.5,0,0,0,1.5,0Z" transform="translate(227.675 6295.329)" fill="#fff"/>
    <path id="Icon_Path-3" data-name="Icon Path" d="M25,12.5c0-1.726.016-3.437-.081-5.16A7.434,7.434,0,0,0,22.9,2.1,7.425,7.425,0,0,0,17.659.082C15.933-.015,14.223,0,12.5,0S9.063-.015,7.34.082A7.433,7.433,0,0,0,2.1,2.1,7.425,7.425,0,0,0,.082,7.34C-.015,9.066,0,10.777,0,12.5s-.016,3.437.081,5.16A7.434,7.434,0,0,0,2.1,22.9,7.425,7.425,0,0,0,7.34,24.918c1.726.1,3.437.081,5.16.081s3.437.016,5.16-.081A7.433,7.433,0,0,0,22.9,22.9a7.425,7.425,0,0,0,2.017-5.241C25.017,15.937,25,14.226,25,12.5Z" transform="translate(210 6291)" fill="none" stroke="#fff" stroke-width="1"/>
  </g>
</svg>
