<svg id="Page-1" xmlns="http://www.w3.org/2000/svg" width="19" height="18" viewBox="0 0 19 18">
  <g id="iPhone-11-Copy" transform="translate(-166 -2194)">
    <g id="Group-9" transform="translate(55 2183)">
      <g id="features" transform="translate(111 11)">
        <path id="Shape" d="M2.508,8.082,1.075,9.434a.641.641,0,0,1-.9-.021A.62.62,0,0,1,.2,8.526L9.042.179a.675.675,0,0,1,.916,0L18.8,8.526a.621.621,0,0,1,.019.887.638.638,0,0,1-.9.021L16.492,8.082v9.294a.631.631,0,0,1-.637.624H3.145a.631.631,0,0,1-.637-.624Zm1.271-1.2v9.651a.211.211,0,0,0,.212.21H6.957a.213.213,0,0,0,.212-.21v-6.7a.631.631,0,0,1,.639-.63h3.385a.633.633,0,0,1,.639.63v6.7a.212.212,0,0,0,.212.21h2.966a.213.213,0,0,0,.212-.21V6.883L9.806,1.773a.454.454,0,0,0-.612,0Z" fill="#26adcd"/>
      </g>
    </g>
  </g>
</svg>
