<svg id="noun-area-4882554_copy" data-name="noun-area-4882554 copy" xmlns="http://www.w3.org/2000/svg" width="16" height="16" viewBox="0 0 16 16">
  <path id="Shape" d="M11.458,15.979l.006-1.231,2.425.012L9.674,10.544l.87-.87,4.215,4.216-.012-2.425,1.231-.006L16,16ZM.022,11.458l1.231.006L1.241,13.89,5.456,9.674l.87.87L2.111,14.759l2.426-.012.006,1.231L0,16Zm9.652-6L13.89,1.24l-2.425.012L11.458.022,16,0l-.023,4.542-1.23-.006.012-2.426L10.543,6.326ZM1.24,2.111l.012,2.426-1.23.006L0,0,4.541.022l-.005,1.23L2.111,1.24,6.326,5.456l-.87.87Z" fill="#26adcd"/>
</svg>
