<svg id="Page-1" xmlns="http://www.w3.org/2000/svg" width="21" height="21" viewBox="0 0 21 21">
  <g id="iPhone-11-Copy" transform="translate(-218 -2889)">
    <g id="Group-15" transform="translate(51 2878)">
      <g id="Group-12" transform="translate(158)">
        <g id="sales" transform="translate(9 11)">
          <path id="Shape" d="M20.129,8.4,18.8,7.065V5.178A2.978,2.978,0,0,0,15.821,2.2H13.936L12.6.871A2.974,2.974,0,0,0,8.4.871L7.063,2.2H5.179A2.978,2.978,0,0,0,2.2,5.178V7.064L.871,8.4a2.974,2.974,0,0,0,0,4.206L2.2,13.937v1.885A2.978,2.978,0,0,0,5.179,18.8H7.064L8.4,20.129h0a2.975,2.975,0,0,0,4.206,0L13.936,18.8h1.885A2.978,2.978,0,0,0,18.8,15.822V13.935L20.129,12.6a2.974,2.974,0,0,0,0-4.206Zm-.841,3.365-1.507,1.507a.6.6,0,0,0-.174.421v2.132a1.787,1.787,0,0,1-1.785,1.785H13.69a.6.6,0,0,0-.421.174l-1.507,1.507a1.784,1.784,0,0,1-2.524,0L7.731,17.781a.6.6,0,0,0-.421-.174H5.179a1.787,1.787,0,0,1-1.785-1.785V13.689a.6.6,0,0,0-.174-.421L1.713,11.761a1.785,1.785,0,0,1,0-2.524L3.22,7.73a.6.6,0,0,0,.174-.421V5.178A1.786,1.786,0,0,1,5.179,3.393H7.31a.6.6,0,0,0,.421-.174L9.238,1.712a1.785,1.785,0,0,1,2.524,0l1.507,1.507a.6.6,0,0,0,.421.174h2.132a1.786,1.786,0,0,1,1.785,1.785V7.31a.6.6,0,0,0,.174.421l1.507,1.507a1.785,1.785,0,0,1,0,2.524ZM14.114,7.726,7.727,14.114a.595.595,0,0,1-.841-.841l6.388-6.388a.595.595,0,0,1,.841.841ZM8.12,9.691A1.573,1.573,0,1,0,7.01,9.23,1.571,1.571,0,0,0,8.12,9.691Zm0-1.952h0a.381.381,0,1,1-.381.381.381.381,0,0,1,.381-.381Zm4.759,3.569h0a1.573,1.573,0,1,0,1.11.461,1.571,1.571,0,0,0-1.11-.461Zm0,1.952a.381.381,0,1,1,.381-.381.381.381,0,0,1-.381.381Z" fill="#26adcd"/>
        </g>
      </g>
    </g>
  </g>
</svg>
