<svg xmlns="http://www.w3.org/2000/svg" width="20.509" height="20.5" viewBox="0 0 20.509 20.5">
  <g id="phone" transform="translate(-1.742 -1.75)">
    <g id="Icon">
      <path id="Icon_Shape" data-name="Icon Shape" d="M17.13,19.5C2.392,18.653.3,6.217.007,2.423A2.25,2.25,0,0,1,2.077,0H6.21A1.5,1.5,0,0,1,7.605.945L8.744,3.75a1.5,1.5,0,0,1-.329,1.62l-1.6,1.612a7.028,7.028,0,0,0,5.684,5.7L14.13,11.07a1.5,1.5,0,0,1,1.627-.308L18.585,11.9a1.5,1.5,0,0,1,.922,1.4v3.96a2.251,2.251,0,0,1-2.25,2.25Z" transform="translate(2.243 2.25)" fill="none" stroke="#26adcd" stroke-width="1"/>
    </g>
  </g>
</svg>
