<svg xmlns="http://www.w3.org/2000/svg" width="14.907" height="16" viewBox="0 0 14.907 16">
  <g id="Group_5" data-name="Group 5" transform="translate(-5.8 -2.5)">
    <path id="Path_21" data-name="Path 21" d="M20.606,6.639,18.1,2.7a.45.45,0,0,0-.387-.2H8.761a.494.494,0,0,0-.387.2L5.867,6.639a.405.405,0,0,0-.067.252V8.405a2.19,2.19,0,0,0,.74,1.632v8.009a.452.452,0,0,0,.454.454H19.512a.452.452,0,0,0,.454-.454V10.021a2.163,2.163,0,0,0,.74-1.632V6.874A.9.9,0,0,0,20.606,6.639ZM9,3.409h8.463l1.935,3.028H7.079Zm9.489,6.276a1.3,1.3,0,0,1-1.3-1.3V7.329h2.591v1.06A1.3,1.3,0,0,1,18.486,9.684Zm-2.2-1.3a1.3,1.3,0,0,1-2.591,0V7.329h2.591Zm-3.5,0a1.3,1.3,0,0,1-2.591,0V7.329h2.591Zm-6.091,0V7.329H9.283v1.06a1.3,1.3,0,0,1-2.591,0Zm7.992,9.186V12.881H16.82v4.694Zm4.358,0H17.712V12.427a.452.452,0,0,0-.454-.454H14.229a.452.452,0,0,0-.454.454v5.148H7.432V10.509a2.115,2.115,0,0,0,.555.084,2.207,2.207,0,0,0,1.75-.875,2.187,2.187,0,0,0,3.5,0,2.187,2.187,0,0,0,3.5,0,2.207,2.207,0,0,0,1.75.875,1.921,1.921,0,0,0,.555-.084Z" transform="translate(0)" fill="#26adcd"/>
    <path id="Path_22" data-name="Path 22" d="M26.63,58.8H23.854a.452.452,0,0,0-.454.454v2.759a.452.452,0,0,0,.454.454H26.63a.452.452,0,0,0,.454-.454V59.254A.452.452,0,0,0,26.63,58.8Zm-.454,2.759H24.309V59.709h1.868Z" transform="translate(-14.639 -46.828)" fill="#26adcd"/>
  </g>
</svg>
